<svg xmlns="http://www.w3.org/2000/svg" viewBox="0 0 32 32" width="32" height="32">
  <!-- Gradient definitions -->
  <defs>
    <linearGradient id="crystalGrad" x1="0%" y1="0%" x2="100%" y2="100%">
      <stop offset="0%" style="stop-color:#60a5fa;stop-opacity:1" />
      <stop offset="50%" style="stop-color:#a78bfa;stop-opacity:1" />
      <stop offset="100%" style="stop-color:#ec4899;stop-opacity:1" />
    </linearGradient>
    <linearGradient id="shimmer" x1="0%" y1="0%" x2="100%" y2="0%">
      <stop offset="0%" style="stop-color:#ffffff;stop-opacity:0.3" />
      <stop offset="50%" style="stop-color:#ffffff;stop-opacity:0.8" />
      <stop offset="100%" style="stop-color:#ffffff;stop-opacity:0.3" />
    </linearGradient>
  </defs>
  
  <!-- Background circle -->
  <circle cx="16" cy="16" r="15" fill="#1e293b" stroke="#fbbf24" stroke-width="1"/>
  
  <!-- Crystal/Diamond shape -->
  <g transform="translate(16, 16)">
    <!-- Main crystal body -->
    <polygon points="0,-10 6,-3 4,8 -4,8 -6,-3" fill="url(#crystalGrad)" stroke="#fbbf24" stroke-width="0.5" stroke-linejoin="miter"/>
    
    <!-- Top facet -->
    <polygon points="0,-10 6,-3 0,-1" fill="url(#shimmer)" opacity="0.6"/>
    <polygon points="0,-10 -6,-3 0,-1" fill="#ffffff" opacity="0.3"/>
    
    <!-- Side facets -->
    <polygon points="6,-3 4,8 0,-1" fill="#1e293b" opacity="0.2"/>
    <polygon points="-6,-3 -4,8 0,-1" fill="#1e293b" opacity="0.3"/>
    
    <!-- Center highlight -->
    <polygon points="0,-1 2,2 0,5 -2,2" fill="#ffffff" opacity="0.5"/>
    
    <!-- Sparkle points -->
    <circle cx="-3" cy="-6" r="0.8" fill="#fbbf24" opacity="0.9"/>
    <circle cx="4" cy="-5" r="0.6" fill="#ffffff" opacity="0.8"/>
    <circle cx="1" cy="6" r="0.7" fill="#fbbf24" opacity="0.9"/>
  </g>
  
  <!-- Decorative sparkles around -->
  <g opacity="0.7">
    <path d="M6,6 L6.5,7 L6,8 L5.5,7 Z" fill="#fbbf24"/>
    <path d="M26,10 L26.5,11 L26,12 L25.5,11 Z" fill="#fbbf24"/>
    <path d="M8,24 L8.5,25 L8,26 L7.5,25 Z" fill="#ffffff"/>
  </g>
</svg>